<?xml version="1.0" encoding="UTF-8"?>
<svg id="Layer_1" xmlns="http://www.w3.org/2000/svg" xmlns:xlink="http://www.w3.org/1999/xlink" version="1.1" viewBox="0 0 121 120">
  <!-- Generator: Adobe Illustrator 29.8.2, SVG Export Plug-In . SVG Version: 2.1.1 Build 3)  -->
  <defs>
    <style>
      .st0, .st1 {
        fill: none;
      }

      .st2 {
        fill: #2fc280;
      }

      .st3 {
        fill: #86bbd3;
      }

      .st4 {
        fill: #a13065;
      }

      .st5 {
        clip-path: url(#clippath-1);
      }

      .st6 {
        fill: #fff;
      }

      .st7 {
        fill: #286b88;
      }

      .st8 {
        opacity: .1;
      }

      .st9 {
        fill: #ffd53d;
      }

      .st10 {
        fill: #358eb5;
      }

      .st11 {
        clip-path: url(#clippath);
      }

      .st12 {
        fill: #ffe1cc;
      }

      .st1 {
        stroke: #2fc280;
        stroke-linecap: round;
        stroke-miterlimit: 10;
        stroke-width: 4px;
      }
    </style>
    <clipPath id="clippath">
      <path class="st0" d="M60.5,0h0C93.61,0,120.5,26.88,120.5,60h0c0,33.11-26.88,60-60,60h0C27.39,120,.5,93.11.5,60h0C.5,26.88,27.39,0,60.5,0Z"/>
    </clipPath>
    <clipPath id="clippath-1">
      <rect class="st0" x="8.75" y="-5.74" width="131.49" height="131.49"/>
    </clipPath>
  </defs>
  <g class="st11">
    <path class="st12" d="M60.5,0h0C93.61,0,120.5,26.88,120.5,60h0c0,33.11-26.88,60-60,60h0C27.39,120,.5,93.11.5,60h0C.5,26.88,27.39,0,60.5,0Z"/>
    <g class="st5">
      <polyline class="st8" points="150.91 99.74 66.31 15.14 34.35 102.95 104.17 172.77 145.78 137.86 150.91 101.09"/>
      <g>
        <rect class="st2" x="76.15" y="44.75" width="8.74" height="46.45" rx="1.05" ry="1.05"/>
        <rect class="st10" x="78.91" y="44.75" width="3.37" height="46.45"/>
        <rect class="st2" x="40.99" y="30.55" width="31.91" height="13.5" rx="5.26" ry="5.26"/>
        <rect class="st2" x="33.43" y="44.05" width="47.1" height="61.01" rx="5.26" ry="5.26"/>
        <rect class="st7" x="33.43" y="36.16" width="47.1" height="61.01" rx="5.26" ry="5.26"/>
        <rect class="st10" x="38.69" y="36.16" width="36.58" height="61.01"/>
        <rect class="st6" x="44.39" y="42.12" width="25.03" height="18.58"/>
        <path class="st4" d="M46.39,88.58h5.04c.43,0,.79.35.79.79v3.67c0,.43-.35.79-.79.79h-5.04c-.43,0-.79-.35-.79-.79v-3.67c0-.43.35-.79.79-.79Z"/>
        <path class="st9" d="M54.39,88.58h5.04c.43,0,.79.35.79.79v3.67c0,.43-.35.79-.79.79h-5.04c-.43,0-.79-.35-.79-.79v-3.67c0-.43.35-.79.79-.79Z"/>
        <path class="st2" d="M62.39,88.58h5.04c.43,0,.79.35.79.79v3.67c0,.43-.35.79-.79.79h-5.04c-.43,0-.79-.35-.79-.79v-3.67c0-.43.35-.79.79-.79Z"/>
        <path class="st3" d="M46.39,81.39h5.04c.43,0,.79.35.79.79v3.67c0,.43-.35.79-.79.79h-5.04c-.43,0-.79-.35-.79-.79v-3.67c0-.43.35-.79.79-.79Z"/>
        <path class="st3" d="M54.39,81.39h5.04c.43,0,.79.35.79.79v3.67c0,.43-.35.79-.79.79h-5.04c-.43,0-.79-.35-.79-.79v-3.67c0-.43.35-.79.79-.79Z"/>
        <path class="st3" d="M62.39,81.39h5.04c.43,0,.79.35.79.79v3.67c0,.43-.35.79-.79.79h-5.04c-.43,0-.79-.35-.79-.79v-3.67c0-.43.35-.79.79-.79Z"/>
        <path class="st3" d="M46.39,75.25h5.04c.43,0,.79.35.79.79v3.67c0,.43-.35.79-.79.79h-5.04c-.43,0-.79-.35-.79-.79v-3.67c0-.43.35-.79.79-.79Z"/>
        <path class="st3" d="M54.39,75.25h5.04c.43,0,.79.35.79.79v3.67c0,.43-.35.79-.79.79h-5.04c-.43,0-.79-.35-.79-.79v-3.67c0-.43.35-.79.79-.79Z"/>
        <path class="st3" d="M62.39,75.25h5.04c.43,0,.79.35.79.79v3.67c0,.43-.35.79-.79.79h-5.04c-.43,0-.79-.35-.79-.79v-3.67c0-.43.35-.79.79-.79Z"/>
        <path class="st3" d="M46.39,69.12h5.04c.43,0,.79.35.79.79v3.67c0,.43-.35.79-.79.79h-5.04c-.43,0-.79-.35-.79-.79v-3.67c0-.43.35-.79.79-.79Z"/>
        <path class="st3" d="M54.39,69.12h5.04c.43,0,.79.35.79.79v3.67c0,.43-.35.79-.79.79h-5.04c-.43,0-.79-.35-.79-.79v-3.67c0-.43.35-.79.79-.79Z"/>
        <path class="st3" d="M62.39,69.12h5.04c.43,0,.79.35.79.79v3.67c0,.43-.35.79-.79.79h-5.04c-.43,0-.79-.35-.79-.79v-3.67c0-.43.35-.79.79-.79Z"/>
        <path class="st7" d="M73.14,100.76c0,.44-.35.79-.79.79h-30.33c-.44,0-.79-.35-.79-.79h0c0-.44.35-.79.79-.79h30.33c.44,0,.79.35.79.79h0Z"/>
        <polygon class="st6" points="66.3 14.94 63.95 17.05 61.6 14.94 59.25 17.05 56.9 14.94 54.55 17.05 52.21 14.94 49.86 17.05 47.51 14.94 47.51 33.35 66.3 33.35 66.3 14.94"/>
        <polyline class="st1" points="51.03 51.06 56.38 55.97 63.85 46.85"/>
      </g>
    </g>
  </g>
</svg>