<?xml version="1.0" encoding="UTF-8"?>
<svg id="Layer_1" xmlns="http://www.w3.org/2000/svg" version="1.1" viewBox="0 0 1536 342">
  <!-- Generator: Adobe Illustrator 29.3.1, SVG Export Plug-In . SVG Version: 2.1.0 Build 151)  -->
  <defs>
    <style>
      .st0 {
        fill: #ffc414;
      }

      .st1 {
        fill: #f58320;
      }

      .st2 {
        fill: #143946;
      }
    </style>
  </defs>
  <polygon class="st2" points="153.11 54.92 153.11 87.94 97.07 87.94 97.07 231.04 56.04 231.04 56.04 87.94 0 87.94 0 54.92 153.11 54.92"/>
  <rect class="st2" x="1367.89" y="273.07" width="69.04" height="69.04"/>
  <rect class="st1" x="1268.83" y="273.07" width="68.04" height="69.04"/>
  <rect class="st0" x="1468.96" y="274.07" width="67.04" height="68.04"/>
  <path class="st1" d="M939.61-.11v24.02h-27.02V-.11h27.02ZM937.61,2.89h-23.01v18.01h23.01V2.89Z"/>
  <path class="st2" d="M1213.79,174.56c51.55-26.08,46.31-98.95-10.49-115.65-4.1-1.21-14.3-3.99-18.03-3.99h-88.55v176.12h39.52l1.51-1.5v-47.54h36.53l35.01,49.04h42.53l-38.02-56.48ZM1178.27,148.98h-40.52v-61.04h37.51c2.59,0,10.94,2.22,13.79,3.24,30.67,10.94,20.87,57.8-10.79,57.8Z"/>
  <polygon class="st2" points="311.21 195.85 311.21 229.54 309.7 231.04 175.12 231.04 175.12 54.92 307.2 54.92 307.2 87.94 215.14 87.94 215.14 124.96 295.69 124.96 297.19 126.48 297.19 158.43 214.97 158.43 214.97 195.85 311.21 195.85"/>
  <path class="st2" d="M1458.11,56.24l-.58-1.32h-39.69l-.58,1.32h.02l-.69,1.53-76.71,173.27h40.52l17.98-38.11,78.93.25,17.17,37.86h41.52l-77.89-174.8ZM1410.92,162l26.02-66.05,28.01,66.05h-54.03Z"/>
  <path class="st2" d="M999.81,56.24l-.58-1.32h-39.73l-.4.99-.14.33-.49,1.11-.11.26-75.29,173.43h40.54l16.47-38.09,80.48.19,15.13,37.9h41.52l-77.4-174.8ZM952.62,162l28.01-66.05,26.02,66.05h-54.03Z"/>
  <path class="st2" d="M415.07,52.23c30.28-2.71,64.11,5.37,83.1,30.39l-25.38,24.09c-39.72-40.34-104-17.25-99.6,42.82,3.71,50.72,68.91,65.43,99.61,28.52l25.05,22.99,1.75,1.52c-45.18,50.11-141.32,36.83-163.4-29.05-19.5-58.18,17.96-115.85,78.87-121.29Z"/>
  <rect class="st2" x="1280.83" y="54.92" width="41.03" height="176.11"/>
  <polygon class="st1" points="912.59 67.93 845.55 230.04 809.53 230.04 874.07 67.93 912.59 67.93"/>
  <path class="st1" d="M799.53,229.04l-75.06-174.11h38.53l55.53,124.69"/>
  <path class="st1" d="M873.57,23.9v33.02h39.03V23.9h-39.03ZM909.59,53.42h-33.02v-26.02h33.02v26.02Z"/>
  <polygon class="st2" points="297.19 124.59 297.19 126.48 295.69 124.96 215.15 124.96 215.15 124.59 297.19 124.59"/>
  <polygon class="st2" points="309.7 231.04 311.21 229.54 311.21 231.04 309.7 231.04"/>
  <polygon class="st2" points="687.45 54.92 687.45 229.54 685.94 231.04 646.42 231.04 646.42 158.99 567.37 158.99 567.37 229.54 565.87 231.04 526.34 231.04 526.34 54.92 565.87 54.92 567.37 56.43 567.37 123.98 646.42 123.98 646.42 54.92 687.45 54.92"/>
  <polygon class="st2" points="567.4 54.92 567.4 123.98 567.37 123.98 567.37 56.43 565.87 54.92 567.4 54.92"/>
  <polygon class="st2" points="567.4 158.99 567.4 231.04 565.87 231.04 567.37 229.54 567.37 158.99 567.4 158.99"/>
  <rect class="st2" x="646.39" y="54.92" width=".04" height="69.06"/>
  <rect class="st2" x="646.39" y="158.99" width=".04" height="72.05"/>
  <polygon class="st2" points="687.45 229.54 687.45 231.04 685.94 231.04 687.45 229.54"/>
  <polygon class="st2" points="1137.75 229.54 1137.75 231.04 1136.23 231.04 1137.75 229.54"/>
  <polygon class="st2" points="958.95 56.24 958.46 57.35 958.93 56.24 958.95 56.24"/>
  <polygon class="st2" points="1417.27 56.24 1416.58 57.77 1417.25 56.24 1417.27 56.24"/>
</svg>